<svg xmlns="http://www.w3.org/2000/svg" viewBox="0 0 680 100" width="680" height="100" role="img" aria-label="IDent roadmap progress: 13%">
  <style>
    .bg { fill: #f6f4ef; }
    .card-border { stroke: #dedad2; }
    .ink { fill: #1b1d24; }
    .ink-soft { fill: #5b5f6e; }
    .ink-faint { fill: #8b8e9c; }
    .seg-bg { fill: #ece8e0; }
    .seg-done { fill: #2f8f5b; }
    .seg-current { fill: #4351c9; }
    .pct { fill: #4351c9; }
    text { font-family: -apple-system, "Segoe UI", "Helvetica Neue", Arial, sans-serif; }
    .serif { font-family: Georgia, "Times New Roman", serif; }
    @media (prefers-color-scheme: dark) {
      .bg { fill: #131318; }
      .card-border { stroke: #2c2d38; }
      .ink { fill: #edecf1; }
      .ink-soft { fill: #a3a3b4; }
      .ink-faint { fill: #6f7180; }
      .seg-bg { fill: #232430; }
      .seg-done { fill: #5fcf93; }
      .seg-current { fill: #93a2ff; }
      .pct { fill: #93a2ff; }
    }
  </style>
  <rect x="0.5" y="0.5" width="679" height="99" rx="12" class="bg card-border" stroke-width="1" />
  <text x="24" y="34" class="serif ink" font-size="19" font-weight="600">IDent</text>
  <text x="24" y="50" class="ink-faint" font-size="11">Everything-app · 11 phases</text>
  <text x="656" y="42" text-anchor="end" class="serif pct" font-size="26" font-weight="600">13%</text>
  <rect x="24.00" y="74" width="54.73" height="10" rx="3" class="seg-bg" /><rect x="24.00" y="74" width="54.73" height="10" rx="3" class="seg-done" />
    <rect x="81.73" y="74" width="54.73" height="10" rx="3" class="seg-bg" /><rect x="81.73" y="74" width="20.52" height="10" rx="3" class="seg-current" />
    <rect x="139.45" y="74" width="54.73" height="10" rx="3" class="seg-bg" />
    <rect x="197.18" y="74" width="54.73" height="10" rx="3" class="seg-bg" />
    <rect x="254.91" y="74" width="54.73" height="10" rx="3" class="seg-bg" />
    <rect x="312.64" y="74" width="54.73" height="10" rx="3" class="seg-bg" />
    <rect x="370.36" y="74" width="54.73" height="10" rx="3" class="seg-bg" />
    <rect x="428.09" y="74" width="54.73" height="10" rx="3" class="seg-bg" />
    <rect x="485.82" y="74" width="54.73" height="10" rx="3" class="seg-bg" />
    <rect x="543.55" y="74" width="54.73" height="10" rx="3" class="seg-bg" />
    <rect x="601.27" y="74" width="54.73" height="10" rx="3" class="seg-bg" />
  <text x="24" y="94" class="ink-soft" font-size="11">Phase 1 of 10 · "Communications Hub" · 3/8 sessions</text>
</svg>
